<svg width="288" height="117" viewBox="0 0 288 117" fill="none" xmlns="http://www.w3.org/2000/svg">
<path d="M167.761 116.271C173.645 116.271 179.506 116.293 185.39 116.249C186.39 116.249 187.988 116.337 188.233 115.408C188.566 114.192 187.344 113.573 186.523 112.932C177.93 106.145 169.381 99.291 160.633 92.6803C156.947 89.8947 154.327 86.6667 152.373 82.4217C144.002 64.2261 135.343 46.1851 126.772 28.0999C126.328 27.1713 125.818 25.6679 124.774 25.8891C123.864 26.0659 120 28.3071 119.667 29.4126C117.469 36.7971 114.416 43.0075 109.452 49.799C106.444 54.5302 106.074 56.9641 102.366 60.4353C97.7474 64.7466 95.1953 68.7702 93.5078 74.6171C91.2864 79.4065 91.868 81.6701 96.5309 83.4388C104.169 86.3572 111.918 89.0103 119.667 91.6633C122.665 92.6803 125.152 94.2501 127.416 96.4832C133.656 102.652 140.117 108.599 146.378 114.745C147.799 116.138 149.331 116.226 151.019 116.249C156.592 116.271 162.143 116.249 167.716 116.249C167.761 116.271 167.761 116.271 167.761 116.271Z" fill="#EEF0F2"/>
<path d="M18.2219 115.067C18.3103 115.937 22.1788 116.263 23.5272 116.263C60.7305 116.285 97.9341 116.285 135.137 116.241C136.994 116.241 140.266 116.48 140.443 115.067C140.664 113.392 138.365 111.695 137.039 110.608C134.673 108.672 132.507 107.062 130.584 104.735C125.19 98.1884 117.962 94.9041 110.026 92.555C104.875 91.0326 99.8793 89.0532 94.795 87.335C93.1149 86.7695 91.8771 85.7472 90.8602 84.3553C89.4234 82.3977 87.8981 80.4836 86.4392 78.5478C80.117 70.1524 80.117 70.1524 71.8716 76.4381C67.1411 80.0486 62.5211 83.8114 57.68 87.2914C55.1158 89.1402 54.0326 90.8585 56.4643 93.5121C58.9401 96.2091 57.9232 97.7316 54.8947 99.3194C43.3778 105.366 17.8019 110.76 18.2219 115.067Z" fill="#EEF0F2"/>
<path d="M237.13 64.3529C228.283 64.2902 218.793 61.9183 210.877 57.5972C202.944 53.2677 196.925 47.1788 194.371 39.8715L194.369 39.8672C192.824 35.4613 190.675 31.353 188.5 27.4876C187.799 26.2424 187.106 25.0383 186.425 23.8555C184.934 21.2666 183.502 18.7797 182.182 16.1865L182.176 16.1758C181.503 14.8641 180.708 13.5875 179.712 12.6004C178.679 11.577 177.109 10.5689 175.056 10.6403C173.11 10.7079 171.656 11.7226 170.733 12.5846C169.792 13.4635 168.977 14.5771 168.262 15.6992C163.033 23.7871 157.717 31.785 152.171 39.6369L152.164 39.6459C150.41 42.1437 149.472 44.6851 149.334 47.4416C149.202 50.083 149.825 52.616 150.638 55.0473L150.641 55.0574C153.606 63.849 155.762 73.5706 161.718 78.8867C164.68 81.5309 166.624 83.6681 169.69 85.9776C170.227 86.3821 172.703 89.3977 173.233 89.7956C175.768 91.6982 177.069 92.9052 179.434 94.8413C183.107 97.8526 182.806 97.3806 186.52 100.159C186.881 100.429 190.59 104.323 190.949 104.591C195.034 107.651 197.811 110.246 201.579 113.455L206.894 114.341C211.323 114.341 210.437 114.341 214.866 114.341C221.952 115.228 223.504 115.132 228.976 115.187C231.565 115.212 233.992 115.068 236.609 115.143C238.483 115.196 240.646 115.151 242.55 115.187C246.944 115.27 251.177 115.143 254.73 115.143C256.503 114.929 258.432 115.143 260.179 115.143C261.927 115.143 266.111 115.684 267.286 114.033C268.607 112.183 267.832 110.029 267.286 108.02C266.836 106.373 265.895 104.798 264.725 103.305C263.173 99.5947 260.254 94.6244 257.482 89.9046C257.218 89.4524 256.953 89.0027 256.691 88.5569C253.36 82.8684 250.444 77.7395 249.359 74.4418L249.356 74.4333C248.568 72.0549 247.408 69.5224 245.4 67.5708C243.259 65.4878 240.477 64.3766 237.13 64.3529Z" fill="#FFEEE2"/>
</svg>
