<svg width="48" height="48" viewBox="0 0 48 48" fill="none" xmlns="http://www.w3.org/2000/svg">
<rect width="48" height="48" rx="24" fill="white"/>
<g clip-path="url(#clip0_8419_25967)">
<path d="M27.1466 6.36063C27.1466 6.36063 25.1925 5.92329 23.3227 6.01536C19.6596 6.19183 10.617 7.97955 10.617 14.7468C10.617 17.9617 12.9313 19.7647 15.9736 19.7647C18.4029 19.7647 20.8858 18.8363 21.2076 15.8824C21.2306 15.6675 20.3876 15.445 19.8819 14.5243C19.0312 12.9744 19.1002 11.3709 20.0351 9.79797C20.2497 9.43736 21.4912 7.64963 25.1695 7.87981C26.8325 7.98723 28.0892 8.86191 28.8402 9.52175C30.097 10.7647 30.8633 12.1842 30.7637 14.3402C30.6488 16.7033 29.8594 18.0077 27.1543 19.312C25.3458 20.179 21.8053 21.0077 19.0389 21.445C6.35619 23.1407 7.0842 36.775 13.5827 40.0665C22.3494 44.4783 30.5185 40.2046 33.0091 38.2021C33.4075 37.8875 33.9746 38.0486 33.9746 38.5627V40.0358C33.9746 40.3427 34.2198 40.5883 34.5264 40.5883H37.6913C37.9978 40.5883 38.2431 40.3427 38.2431 40.0358V20.9923C38.2277 13.9642 33.783 7.95654 27.1466 6.36063ZM16.6326 37.8645C16.3108 37.9182 16.0426 37.6343 16.1115 37.312C16.464 35.6854 17.6672 31.3274 20.9394 28.1586C24.204 24.9898 28.549 23.9693 30.1736 23.6854C30.4955 23.6317 30.7637 23.9156 30.6947 24.2379C30.3422 25.8645 28.6257 29.578 25.3534 32.7468C22.0812 35.9156 18.2496 37.5806 16.6326 37.8645ZM33.852 32.8159C33.3462 33.7596 32.2197 35.5397 30.3959 36.6752C28.572 37.8108 26.5412 38.0026 25.5067 38.0179C25.1619 38.0256 24.9626 37.6726 25.1312 37.3581C25.637 36.4143 26.7635 34.6343 28.5873 33.4987C30.4112 32.3632 32.442 32.1714 33.4765 32.156C33.8214 32.1484 34.0206 32.5013 33.852 32.8159Z" fill="#D27B60"/>
</g>
<defs>
<clipPath id="clip0_8419_25967">
<rect width="29.2277" height="36" fill="white" transform="translate(9 6)"/>
</clipPath>
</defs>
</svg>
